# xmcd
# 
# Track frame offsets:
#     150
#     20535
#     58592
#     80030
#     111467
#     134217
#     155055
#     180850
#     195680
#     215505
#     250332
#     274522
#     303970
#     317282
# 
# Disc length: 4574
# 
# Revision: 10
# Processed by: cddbd v1.5.2PL0 Copyright (c) Steve Scherf et al.
# Submitted via: fre:ac v1.1beta1pre5
# 
DISCID=c711dc0e
DTITLE=Buddy Guy - Buddy's Baddest - The Best Of
DYEAR=1998
DGENRE=Blues
TTITLE0=Damn Right I've Got The Blues
TTITLE1=Five Long Years
TTITLE2=Mustang Sally
TTITLE3=Rememberin' Stevie
TTITLE4=She's A Superstar
TTITLE5=Feels Like Rain
TTITLE6=She's Nineteen Years Old
TTITLE7=I Smell Trouble
TTITLE8=Someone Else Is Steppin' In (Slippin' Out, Slippin In)
TTITLE9=My Time After Awhile (live)
TTITLE10=Midnight Train
TTITLE11=Miss Ida B
TTITLE12=I Need Your Love So Bad
TTITLE13=Innocent Man
EXTD=ID3G:   0
EXTT0=
EXTT1=
EXTT2=
EXTT3=
EXTT4=
EXTT5=
EXTT6=
EXTT7=
EXTT8=
EXTT9=
EXTT10=
EXTT11=
EXTT12=
EXTT13=
PLAYORDER=
